<svg xmlns="http://www.w3.org/2000/svg" width="128" height="128" viewBox="0 0 195.398 195.398"><g fill="#0e2343"><path d="M130.543 161.12c1.48-1.115 2.75-2.22 3.695-3.2 15.06-15.618 19.77-33.502 20.404-54.793 1.102-37.017-26.112-69.974-64.28-64.54-36.473 5.19-60.778 42.924-56.557 77.754 2.443 20.16 15.81 35.606 32.93 44.164-.075.085-.153.17-.225.256-.01 0-.018-.008-.027-.008-1.85-.073-3.42 2.608-4.32 3.905a30.355 30.355 0 0 0-4.15 8.674c-1.056 3.607-.316 10.098 4.464 10.5 3.945.33 6.87-5.97 8.29-8.704 1.14-2.19 2.125-4.463 3.083-6.738.53-1.258 1.525-2.824.998-4.214-.035-.09-.092-.17-.144-.255 10.648 3.78 22.21 5.093 33.28 3.35.086-.016.107-.094.182-.12 2.99 1.75 6.963 1.43 10.972.11.007.02-.01.04 0 .06 2.175 5.227 12.748 21.39 19.643 13.357 2.81-3.268-.025-8.632-1.735-11.697-.952-1.706-3.845-7.327-6.5-7.86zm-21.32 2.57c-1.108-.667-2.062-.044-2.4.855-29.14.583-54.662-10.08-66.512-38.438-11.96-28.63 4.99-58.867 28.53-74.79 30.895-20.895 65.054-5.928 78.028 27.176 6.144 15.675 4.26 34.042.786 50-2.15 9.872-22.996 44.486-38.43 35.197zM66.186 34.82c-3.978-14.71-24.683-16.182-34.254-5.925-6.804 7.29-7.326 28.15 5.797 28.128-.02.098-.065.19-.08.287-.22 1.58 1.745 2.643 2.685 1.132 3.863-6.207 9.384-10.37 15.32-14.52 2.026-1.414 7.162-3.908 9.21-6.81.904-.276 1.638-1.114 1.32-2.293zm-16.403 8.596c-3.572 2.622-8.63 6.152-10.943 10.515-9.777-2.59-9.826-15.195-4.18-22.31 6.723-8.47 23.196-7.163 27.286 2.83-4.166 2.727-8.19 6.05-12.163 8.968zm103.135-22.538c-5.718-1.132-29.342 3.473-22.523 12.222-.02.4.076.807.45 1.06 8.514 5.762 16.79 11.528 24.47 18.407.493.44 1.043.555 1.557.477.436.145.946.11 1.48-.208 13.582-8.11 10.62-28.778-5.434-31.958zm4.216 28.174c-7.323-6.446-15.396-12.983-24.51-16.614-.88-7.005 13.538-8.142 18.107-7.96 5.57.224 10.47 5.015 12.23 10.028 2.066 5.876-1.27 11.157-5.824 14.546z"/><path d="M121.624 77.098c-2.43.474-4.497 3.688-6.06 5.394a250.714 250.714 0 0 0-9.805 11.354c-.74.91-4.496 4.97-6.708 8.613-.217-.076-.407-.196-.633-.25-.086-.34-.277-.65-.64-.746-3.026-.787-5.594.262-7.284 2.114-4.407-3.374-9.148-6.47-13.285-10.158-6.33-5.644-12.45-11.788-19.524-16.513-1.11-.74-2.288.892-1.393 1.804 6.424 6.543 13.18 12.856 19.994 18.99 3.47 3.125 7.726 7.4 12.27 10.167-.19 1.717.122 3.538 1.23 5.222 4.02 6.095 15.16 1.98 13.904-5.33-.215-1.257-.793-2.346-1.567-3.256.52-.73.984-1.398 1.18-1.665 2.545-3.483 5.402-6.745 8.202-10.02a283.39 283.39 0 0 1 7.424-8.34c1.42-1.54 3.643-3.117 4.48-5.06.557-1.29-.336-2.608-1.787-2.325zM92.82 51.928c-.045 1.946-.387 3.896-.63 5.823-.184 1.46-.676 3.446.418 4.686-.01.106-.007.21-.02.317-.164 1.504 2.22 1.754 2.587.35.95-3.625 1.092-7.444 1.258-11.172.102-2.323-3.558-2.33-3.612 0zm-40.042 59.566c-3.856.15-7.69-.376-11.544-.198-1.585.073-1.572 2.28-.054 2.456-.1.507.012 1.03.488 1.41.527.418 1.084.517 1.66.472-.48.154.956-.003 1.242-.03 1.026-.1 2.055-.178 3.083-.255 1.704-.135 3.416-.287 5.126-.328 2.27-.057 2.27-3.618-.004-3.53zm45.642 37.12c-.13-1.71-2.934-2.366-3.202-.436-.02.145-.012.294-.03.438a.236.236 0 0 1-.028-.004c-.032.41-.035.822-.056 1.23-.057.762-.118 1.517-.103 2.28a77.892 77.892 0 0 1-.1 2.317c-.05.77-.19 1.536-.32 2.304-.505.878-.367 2.043-.36 3.086-.01 1.2.92 1.794 1.85 1.788.93.005 1.86-.59 1.85-1.788-.002-.303.057-.617.08-.925a.463.463 0 0 0 .025-.267c.02-.216.03-.43.058-.645.03-.176.064-.372.084-.56.007-.065-.008-.138-.004-.203.1-.66.205-1.32.252-1.962a44.69 44.69 0 0 0 .007-6.657zm47.135-37.904c-1.016-.944-2.7-.994-4.347-1.12-2.292-.175-4.6-.377-6.897-.393-.99-.007-1.555.614-1.743 1.35-.14-.017-.28-.022-.42-.042-1.478-.193-1.76 2.237-.348 2.57 3.72.882 7.39.895 11.17.44.104-.012.18-.058.276-.082.58-.017 1.173-.028 1.622-.12a6.695 6.695 0 0 0-.04-.097c1.054-.305 1.767-1.536.728-2.505zM85.3 28.386c-1.425-3.108-3.478-5.838-5.374-8.67C78.248 17.21 75.892 14 76.264 10.8c.115-.99-1.288-1.45-1.91-.79-2.262 2.403-.23 5.785 1.152 8.13 2.354 3.99 5.48 7.46 8.244 11.153.69.926 2.038.157 1.55-.906zm7.99-9.92c-.066-2.375.186-4.954-.383-7.265-.28-1.14-2.072-1.172-2.333 0-.455 2.05-.014 4.167.217 6.23.32 2.84.636 5.677.88 8.524.09 1.013 1.517 1.025 1.586 0 .167-2.496.107-4.985.037-7.485zM107.007 7.6c-2.27 1.225-2.76 4.75-3.426 7.03-1.06 3.643-2.02 7.52-2.19 11.325-.056 1.323 2.004 1.597 2.305.312.782-3.34 1.58-6.636 2.613-9.912.78-2.477 2.474-5.127 2.51-7.716.013-.94-1.024-1.464-1.81-1.04zM26.985 68.34c-2.138-1.934-4.673-3.44-6.906-5.27a27.986 27.986 0 0 1-2.69-2.51c-.7-.742-1.114-1.724-1.87-2.4-.74-.663-2.084-.464-2.328.613-.54 2.38 2.018 4.38 3.617 5.73 2.584 2.18 5.562 4.4 8.625 5.846 1.24.583 2.692-.977 1.55-2.01zM20.9 79.777c-3.095-1.368-6.593-2.193-9.835-3.168-.936-.284-2.355-.51-3.142.286-.74.75-.363 1.723.51 2.105-.192-.042-.208-.086.163.13.398.234.775.413 1.23.51 1.07.237 2.13.518 3.192.79 2.317.59 4.88 1.54 7.292 1.53 1.087-.004 1.703-1.69.59-2.184zm-2.756 21.107c-3.324.097-6.624.826-9.895 1.377-2.36.4-5.92.09-7.82 1.71-.616.528-.534 1.56 0 2.1.93.935 2.433.58 3.597.4.49-.076.726-.49.793-.937.38-.044.723-.084.916-.124 1.424-.295 2.84-.628 4.256-.954 2.788-.642 5.614-1.175 8.37-1.938.895-.248.728-1.658-.22-1.63zm3.09 38.183c-2.647 1.318-5.184 2.616-7.99 3.613-1.725.612-3.57.955-5.087 2.008-.95.66-.652 2.23.607 2.24 2.042.013 3.948-1.008 5.8-1.784 2.622-1.1 5.963-2.304 7.914-4.466.797-.88-.196-2.133-1.245-1.61zm6.624 11.768c-2.51 1.77-4.255 4.95-5.75 7.552-1.697 2.956-3.8 7.38-2.427 10.8.565 1.4 2.74 1.31 2.75-.372.03-3.706.74-6.536 2.45-9.867 1.254-2.436 3.22-4.648 4.11-7.245.21-.616-.583-1.254-1.13-.868zM93.13 177.42c-1.45 1.515-3.613 3.488-4.31 5.526-.582 1.696.42 2.99 2.2 2.885 1.164-.066 1.524-1.716.45-2.14.08-.164.155-.332.25-.49.274-.485.617-.937.94-1.39.73-1.02 1.542-1.983 2.19-3.06.644-1.065-.855-2.23-1.72-1.327zm17.93 8.475c-1.255-.906-2.57-1.638-3.655-2.765-1.354-1.41-1.96-3.356-2.445-5.197-.277-1.054-2.068-.867-1.942.263.454 4.07 2.74 8.898 7.188 9.73 1.266.236 1.886-1.288.855-2.03zm48.646-33.425c-2.52-1.833-5.838-3.543-9-2.41-.756.27-.686 1.498.2 1.464 3.502-.133 5.963 1.392 8.427 3.777 1.603 1.555 2.76 4.017 4.693 5.144.895.52 1.962-.33 1.71-1.315-.67-2.62-3.958-5.153-6.03-6.66zm34.49-21.677c-9.734-.615-19.094-5.575-28.86-4.807-1.25.098-1.28 1.932 0 1.963 6.063.145 11.47 2.084 17.16 3.953 3.873 1.27 8.01 2.452 12.027 1.294 1.37-.396 1.032-2.322-.326-2.407zm-6.343-34.388c-3.104 2.35-5.848 4.24-9.57 5.566-2.866 1.024-5.83 1.4-8.79 2-.614.124-.64 1.16 0 1.263 6.03.96 16.467-1.932 19.912-7.273.587-.913-.63-2.25-1.552-1.553zm.66-19.585c-2.65 1.696-4.858 3.99-7.52 5.715-3.147 2.038-6.606 3.336-10.18 4.398-1.392.413-.802 2.4.59 2.143 6.532-1.213 14.962-4.904 18.828-10.54.72-1.044-.68-2.38-1.715-1.717zm-3.787-10.096c-3.352-2.142-10.15 1.217-13.097 2.917-3.48 2.01-6.344 5.4-4.127 9.405.533.963 1.837.117 1.433-.837-1.53-3.623 3.617-6.107 6.216-7.19 1.655-.688 3.404-1.15 5.16-1.49 1.328-.257 2.844-.053 4.113-.52 1.012-.373 1.254-1.672.3-2.282z"/></g></svg>