<svg xmlns="http://www.w3.org/2000/svg" width="128" height="128" viewBox="0 0 193.736 193.736"><g fill="#eb6298"><path d="M59.89 191.72c-.054.127-.06.18 0 0z"/><path d="M146.62 103.806c-.815-33.696-1.375-67.414-2.885-101.087-.147-3.32-4.942-3.35-5.187-.1-12.722-1.46-26.075-.446-38.91-1.24C85.208.48 70.655-.93 56.25.865c-1.794.225-2.818 1.45-3.113 2.79C39.117 9.56 46.884 72.06 47.29 81.58c.988 23.036 2.437 46.05 3.77 69.066.744 12.77-.17 26.774 2.167 39.34.22 1.188.978 1.862 1.886 2.12.034.098.04.193.083.293 1.037 2.403 4.028 1.2 4.702-.75.018-.016.045-.088.078-.217a5.88 5.88 0 0 1-.086.286c.02-.054.05-.115.082-.17.062-.103.134-.197.204-.293.026-.022.255-.315.292-.357a67.88 67.88 0 0 1 2.01-2.244c.51.17 1.093.223 1.772.03 6.386-1.807 11.702-8.276 16.45-12.556 6.66-6 13.182-12.418 20.315-17.905 9.5 12.148 22.484 24.696 35.472 32.17 2.224 1.28 4.95-.674 4.816-2.945.052.31.076.63.128.94.46 2.712 5.017 2.723 5.467 0 4.468-27.045.386-57.234-.274-84.584zm-27.64-92.703c-.105.196-.215.39-.25.71-.075.685.39 1.057.93 1.118.015.07.074.204.236.53.277.557.675.98 1.104 1.425 1.31 1.365 2.554 2.798 3.8 4.22 2.685 3.062 5.264 6.403 8.24 9.187 2.242 2.1 5.387-1.08 3.35-3.35-3.607-4.025-7.605-7.83-11.516-11.564-.432-.412-1.716-1.504-3.002-2.224 5.647.034 11.23-.396 16.435-1.894-.33 10.21-.403 20.42-.39 30.634-4.965-5.93-11.626-10.84-17.413-15.788-5.88-5.028-11.995-9.82-18.396-14.173 5.434.42 11.163.988 16.873 1.174zM55.046 85.55c-.75-16.21-1.324-32.434-1.325-48.656 0-4.676-1.9-23.207.59-29.98a3.476 3.476 0 0 0 1.94.687c14 .67 27.98 1.168 41.97 2.07 6.318 5.932 12.86 11.617 19.204 17.52 6.445 5.993 12.37 13.307 19.583 18.33.297.204.613.276.928.294.103 17.216.494 34.433.896 51.64.49 21.13-.805 43.578.18 65.313-2.945-1.12-10.876-9.26-13.145-11.19-8.72-7.422-17.146-15.2-25.57-22.956-15.33-14.114-30.36-28.5-45.25-43.07zm9.047 94.777c-.75-.114-1.55.07-2.253.772-.443.44-.845.913-1.277 1.36.24-3.85-.005-7.955-.373-11.994.64.982 1.25 1.985 1.99 2.903 1.158 1.434 2.562 3.11 4.153 4.486-.753.823-1.528 1.643-2.24 2.47zm5.313-5.716c-1.39-.95-2.798-1.893-4.026-3.094-2.307-2.26-4.156-4.945-5.857-7.685-.257-2.452-.492-4.815-.61-6.985-.164-3.005-.34-6.01-.51-9.014 2.872 5.056 6.016 9.94 9.51 14.59 1.516 2.02 3.783 5.677 6.418 7.486-1.666 1.56-3.36 3.112-4.923 4.706zm8.293-7.814c-.357-.344-.75-.68-1.22-1.082-2-1.707-3.785-3.675-5.53-5.632-3.898-4.36-7.326-9.146-10.52-14.04-.565-.867-1.6-.733-2.136-.16-.17-3.02-.342-6.036-.514-9.054 4.034 4.418 8.03 8.87 12.02 13.326 2.903 3.246 5.863 6.444 8.728 9.725.974 1.113 2.115 2.48 3.524 3.18a218.004 218.004 0 0 0-4.352 3.737zm7.182-6.08c-1.43-4.516-8.303-9.222-11.286-12.24-5.302-5.365-10.644-10.7-16.062-15.953-.28-4.894-.53-9.79-.803-14.687 5.59 6.144 11.173 12.29 16.694 18.49 5.08 5.706 10.743 15.09 17.408 19.706-1.977 1.526-3.965 3.066-5.948 4.685zM99.75 149.4c-1.563 1.103-3.194 2.33-4.81 3.528-3.465-6.703-11.326-12.648-16.27-17.782a683.815 683.815 0 0 0-22.196-22.022c-.196-3.568-.39-7.137-.585-10.706 12.41 17.775 29.135 32.003 45.69 46.42a3.062 3.062 0 0 0-1.83.56zM55.576 96.68c-.093-1.846-.174-3.694-.264-5.54 14.807 17.554 32.758 33.224 49.424 48.8 1.666 1.556 6.206 6.55 11.598 11.842-4.546-3.86-9.165-7.547-13.524-11.13-16.69-13.717-33.955-26.814-47.233-43.972zm52.89 58.206c4.283 3.8 8.506 7.655 12.594 11.625-4.45-3.65-8.817-7.39-12.594-11.623zm17.047 5.232c5.302 4.35 10.39 7.492 13.704 6.968.235 3.88.53 7.738.958 11.55-3.73-6.832-8.922-12.9-14.662-18.518z"/><path d="M144.045 128.64c-7.805-6.798-17.403-12.01-25.577-18.473-9.01-7.122-17.642-14.74-25.99-22.63 2.26-1.715 4.527-3.42 6.754-5.186 4.43 5.607 10.254 10.63 16.592 13.724a226.68 226.68 0 0 0 9.864 9.702c4.14 3.81 9.465 9.254 15.03 10.612 1.543.376 2.575-1.455 1.516-2.606-3.808-4.142-9.695-6.864-14.096-10.456-2.72-2.222-5.302-4.597-7.863-6.993.85-.53 1.45-1.424 1.435-2.67-.045-3.684-.426-7.356-1.023-10.994 1.022.94 2.038 1.89 3.04 2.86 3.797 3.673 7.54 8.944 12.5 10.953 1.135.46 2.095-1.05 1.525-1.985-2.91-4.778-8.967-8.618-13.185-12.31a109.183 109.183 0 0 0-4.71-3.877c-.198-.92-.387-1.845-.615-2.76-.61-2.44-1.503-6.3-3.473-8.582.27-.147.514-.364.774-.538 2.57 2.697 5.148 5.387 7.68 8.122 4.278 4.623 8.084 9.955 12.69 14.23 1.352 1.254 3.7-.38 2.628-2.03-5.337-8.2-13.45-15.24-20.857-22.042 1.364-1.306 2.618-2.764 3.853-4.054 4.353 5.657 9.195 11.23 14.457 15.917 1.504 1.34 3.545-.7 2.206-2.204-4.786-5.377-10.16-10.105-14.882-15.538l7.386-7.456c.783.52 1.56 1.073 2.347 1.584 2.054 1.334 3.807-1.505 2.444-3.167C120.216 29.947 93.88 17.457 73.77 1.87c-1.183-.92-2.872.64-1.692 1.694 7.598 6.782 15.48 13.696 23.557 20.456a2.76 2.76 0 0 0-1.284 1.297c-1.082 2.187-2.003 4.43-2.832 6.696-10.584-8.06-19.148-17.56-28.166-27.3-1.31-1.418-3.213.63-2.07 2.07 8.44 10.633 17.6 21.74 28.69 29.717.04.027.074.025.11.05-.77 2.873-1.33 5.798-1.503 8.804-.27-.048-.554-.037-.833-.05 1.1-.867 1.343-2.706-.123-3.47-2.765-1.44-5.397-2.186-7.92-4.18-3.193-2.522-5.963-5.606-8.667-8.626-5.294-5.914-9.9-12.405-15.236-18.278-1.135-1.25-3.384.44-2.36 1.82 5.48 7.385 10.758 14.914 16.72 21.926 2.73 3.213 8.16 9.995 13.407 11.27-.463.095-.92.19-1.346.267-1.43.257-2.857.537-4.29.812a1.562 1.562 0 0 0-.282-1.16c-3.613-4.974-9.68-8.897-14.376-12.806-3.6-2.997-7.21-5.745-11.077-8.26-.95-.62-1.913.74-1.175 1.52a134.58 134.58 0 0 0 8.84 8.554c4.657 4.11 9.088 9.077 14.063 12.842-1.837.282-3.68.51-5.545.55-2.73.062-4.156 3.373-2.217 5.353 4.69 4.79 9.363 9.716 15.46 12.657-.206.797-.44 1.583-.655 2.377-3.943-4.33-8.776-8.183-12.938-12.13-4.236-4.015-8.9-10.062-14.542-12.137-.918-.338-1.704 1.02-.962 1.653 4.866 4.137 9.13 9.646 13.533 14.29 3.722 3.923 8.327 10.494 13.547 13.203a381.573 381.573 0 0 1-1.71 5.67c-3.06-3.65-7.247-6.764-10.66-9.94-2.13-1.987-4.236-4.002-6.276-6.084-.23-.237-3.836-3.86-3.895-3.726.48-1.087-.924-1.953-1.61-.94-1.8 2.65 3.86 7.67 5.26 9.184 2.67 2.88 5.45 5.662 8.225 8.442 2.42 2.424 4.732 5.318 7.55 7.27.02.015.043.015.063.028-.815 2.565-1.627 5.13-2.443 7.7-1.033-.934-2.18-1.773-3.216-2.657-2.334-1.99-4.606-4.054-6.853-6.144-1.77-1.648-3.496-3.345-5.23-5.034-1.092-1.065-2.553-3.098-3.71-2.55.763-.362.193-1.43-.543-1.287-2.543.49 3.002 6.578 3.383 7.01 2.586 2.946 5.438 5.69 8.248 8.42 2.037 1.98 4.22 4.466 6.766 5.91-.12.382-.242.762-.36 1.145-1.055 3.422 3.4 5.785 5.844 3.402.952-.928 1.958-1.78 2.947-2.66 7.21 9.567 18.644 17.552 27.298 25.447 9.262 8.447 18.02 19.51 28.45 26.434 1.7 1.133 3.52-1.03 2.652-2.652-5.736-10.742-18.595-19.398-27.57-27.312-8.756-7.715-18.17-17.91-28.45-24.03 2.35-1.963 4.775-3.83 7.21-5.683 8.12 8.214 16.555 16.102 25.174 23.79 7.4 6.6 16.394 16.136 25.982 19.45 1.85.633 3.402-2.023 1.925-3.31zm-20.95-83.206c-4.26.014-8.51-.172-12.793-.1-1.468-5.33-3.948-10.242-6.88-14.905 6.457 5.214 13.026 10.25 19.672 15.002zM82.142 86.768c1.624-6.705 2.937-13.475 3.312-20.39a1.702 1.702 0 0 0-.17-.835c.348-.768.226-1.728-.762-2.37-3.843-2.5-6.765-5.99-9.71-9.456 1.866-.293 3.724-.646 5.574-.997 2.676-.51 7.244-.44 9.763-2.16 1.474.497 3.43-.305 3.566-2.37.345-5.205 1.982-10.06 4.046-14.768 3.15 4.797 5.69 9.945 6.98 15.608.5 2.206 2.573 2.624 4.186 1.92.13.023.23.085.372.093 4.378.267 8.68.868 12.984.964l-2.803 2.776c-1.925 1.908-4.527 3.893-6.386 6.18-.1.09-.183.193-.252.308-.696.906-1.278 1.854-1.637 2.87-.16.45-.152.912-.037 1.35-.95.426-1.7 1.255-1.613 2.41.104 1.38.585 2.774 1.142 4.167-.295-.17-.573-.36-.87-.525-1.18-.66-2.194 1.09-1.056 1.807a64.508 64.508 0 0 1 3.363 2.29c.22.57.45 1.143.607 1.705 1.012 3.603 1.657 7.32 2.016 11.057-4.74-2.375-8.923-5.398-12.73-9.207.4-2.503-2.593-5.464-5.046-3.61-4.947 3.737-9.988 7.345-14.842 11.185z"/></g></svg>