<svg xmlns="http://www.w3.org/2000/svg" width="128" height="128" viewBox="0 0 194.721 194.721"><g fill="#eb6298"><path d="M191.79 113.42c-1.69-28.352 2.938-56.322-.87-84.683-.14-1.037-.758-1.88-1.896-1.897-13.33-.197-26.65-1.16-39.956-.937.508-.112.974-.398 1.114-1 2.19-9.327-8.063-14.878-15.694-16.1-9.298-1.49-21.258 1.758-26.788 9.874-1.478 2.168-2.368 4.727-2.786 7.474-4.234-2.81-11.893-1.58-16.34-1.276-4.543.307-9.064.855-13.584 1.396 1.024-7.253-4.703-12.768-11.872-13.787-9.564-1.36-20.08 3.456-26.123 10.754-2.03 2.45-3.108 5.162-3.585 7.95-3.665-1.284-9.178-.614-12.71-.8-6.23-.328-12.597-.527-18.7.934-.515-.233-1.1-.093-1.412.424-.72.484-.736 1.39-.28 2.034-1.873 50.14 7.043 99.755.747 149.915-.13 1.043.955 1.854 1.88 1.882 32.882 1.022 65.564-1.335 98.352-3.52 29.03-1.934 58.274 1.772 87.312 2.108-.177 2.188 3.182 3.046 3.67.743 5.055-23.784.947-47.517-.48-71.483zm-10.426-82.9c5.113.18 7.403 6.72 8.266 15.186-5.802-4.276-10.47-9.65-15.783-14.53-.525-.483-1.258.252-.78.78 3.03 3.366 6.09 6.706 9.112 10.08 2.022 2.26 4.643 5.915 7.705 6.882.456 7.623-.013 16.262-.533 23.12-1.786-1.327-4.17-1.89-6.7-2.118-2.63-7.19-10.083-14.218-14.846-19.787-5.55-6.493-11.223-13.276-18.16-18.284-.452-.33-1.028.42-.597.77 12.306 10.03 20.09 25.123 30.24 37.154-2.164.01-4.31.15-6.196.205.544-.225.928-.847.55-1.438-4.604-7.197-11.366-13.715-16.68-20.486-4.66-5.94-10.063-14.46-17.215-17.636-.507-.223-1.04.36-.616.8 6.247 6.41 11.896 12.845 17.278 20.06 4.474 5.994 9.28 14.814 15.812 18.684.055.032.11.01.165.03-.298.005-.618.018-.897.014-1.698-.018-3.395.006-5.09.01.104-.126.224-.237.284-.413.21-.602.107-.885-.124-1.49a.98.98 0 0 0-1.307-.55c-.02-.093-.23-.313-.877-1.026-.884-.97-1.7-2.004-2.525-3.025a336.04 336.04 0 0 0-6.06-7.315c-6.973-8.173-13.517-16.702-21.17-24.263.498-.867 1.08-1.657 1.613-2.574 15.065-.01 30.065.626 45.123 1.157zm-23.31 37.677c-4.61-4.428-9.157-8.584-13.296-13.504-3.872-4.6-7.54-9.41-11.66-13.797-.008-2.154.126-4.308.537-6.424.057-.288.156-.525.237-.783 7.753 8.7 14.304 18.365 22.095 27.012 1.822 2.022 4.664 7.716 7.794 9.315-1.993.01-3.99 0-5.986.01.61-.386.938-1.203.28-1.833zm-46.36-48.445c4.854-5.95 13.46-7.717 20.723-7.372 8.515.405 12.737 4.797 14.787 12.522.158.595.646.892 1.172 1.006-4.216.084-8.43.312-12.644.707-.155-.05-.296-.128-.482-.116-5.088.33-5.703 8.58-5.917 12.324-.218 3.83-.787 11.117 2.46 13.888.075.064.156.076.235.114-16.727 7.597-30.49-20.636-20.335-33.076zM104.4 29.57c.085.016.152-.033.236-.03-.208 16.514 14.758 36.905 30.138 24.9 1.212-.946-.298-2.728-1.56-2.102.03-.084.082-.154.093-.253.292-2.58.065-5.143-.103-7.762 3.26 4.055 6.464 8.15 9.692 12.23 3.8 4.803 8.042 10.467 13.505 13.478-3.246.02-6.496-.01-9.745.02.496-.534.62-1.52-.145-2.09-4.74-3.533-8.118-7.915-12.186-12.118-.54-.556-1.55.187-1.09.84 3.36 4.775 7.112 9.88 11.843 13.38-2.534.02-5.067.04-7.602.056-.046-.107-.027-.22-.127-.32.63.63.005-.088-.173-.376-.38-.62-.83-1.112-1.336-1.632-1.39-1.43-2.85-2.797-4.28-4.19-1.428-1.394-2.858-2.782-4.28-4.176-.367-.356-.92-.97-1.43-1.11a1.585 1.585 0 0 0-.438-.033c-.125-.117-.27-.26-.44-.26-.1 0-.184.068-.213.16-.127.4.117 1.334.407 1.768 1.062 1.598 2.484 3 3.784 4.402 1.5 1.617 2.98 3.27 4.544 4.827.317.316.636.64.967.95-2.617.008-5.234.054-7.852.036.144-.012.293 0 .44-.026.927-.172 1.104-1.624.265-2.033-7.465-3.634-12.733-13.41-17.466-19.794-4.744-6.398-9.35-14.108-15.27-19.716 3.268.042 6.538.308 9.82.975zm-22.746-.2c7.46 6.992 13.32 15.25 19.226 23.55 3.9 5.485 8.11 12.86 14.008 16.38.883.528 2.165-.58 1.49-1.49-5.086-6.857-11.008-13.188-16.15-20.075-4.936-6.613-10.085-13.207-16.376-18.592 2.79-.28 5.578-.454 8.37-.514 7.28 8.346 12.888 18.292 19.452 27.19 2.647 3.59 8.35 13.62 13.936 14.33-3.39-.03-6.78-.05-10.17-.156-2.474-.075-4.933-.057-7.398-.094.4-.507.51-1.24-.074-1.852a815.78 815.78 0 0 1-18.673-20.243c-4.7-5.277-9.742-13.516-15.815-17.49 2.727-.306 5.45-.646 8.174-.947zm4.075 18.655c6.39 7.508 12.932 14.96 19.992 21.847-3.104-.034-6.215-.116-9.314-.118.173-.328.303-.76.343-1.395.085-1.336-1.816-1.447-2.212-.3.89-2.57-11.77-16.31-13.393-18.45C76 42.813 70.562 36.385 63.867 31.102c2.67-.1 5.326-.343 7.98-.622 2.458 6.45 9.487 12.38 13.882 17.546zm-30.886 7.387c2.303 3.37 4.898 6.535 7.493 9.683.832 1.01 2.26 3.142 3.844 4.823-1.657.022-3.314.042-4.976.063-.362-1.053-1.174-1.795-1.92-2.63-1.45-1.62-2.88-3.255-4.322-4.88-2.084-2.35-4.175-4.556-6.495-6.6 2.125.236 4.2-.202 5.968-1.414.003 0 0 .003 0 .004.166.09.245.523.407.2-.112.23-.15.527 0 .75zm9.32 7.858c-2.657-2.943-5.12-6.188-8.154-8.756-.187-.16-.47-.292-.72-.19.01-.006-.163-.126-.34-.238 1.025-.826 1.934-1.932 2.65-3.38.707-.388 1.14-1.214.575-2.087-1.01-1.57-1.39-3.16-1.382-4.774 3.564 5.077 7.52 9.884 11.225 14.853 2.18 2.924 4.313 5.863 6.563 8.74.617.788 1.237 1.686 2 2.375-2.01.022-4.015.022-6.025.047-.5-.62-1.16-1.14-1.727-1.676-1.64-1.55-3.154-3.243-4.664-4.917zm-7.07-21.955a21.9 21.9 0 0 1 .87-2.89c.267-.717.594-1.334.94-1.926 3.8 5.876 8.29 11.46 12.426 17.072 4.05 5.495 8.257 11.832 13.66 16.195-1.78.012-3.56.005-5.337.022a1.084 1.084 0 0 0-.262-.767c-7.7-8.983-14.67-18.623-22.295-27.71zm16.29 10.674c-4.272-5.467-8.33-12.097-13.59-16.796.826-1.084 1.783-2.042 2.783-3.015 9.925 9.144 17.57 20.602 25.448 31.482.525.726 3.46 4.545 5.784 6.09-1.8.004-3.603-.01-5.4 0a1.29 1.29 0 0 0-.338-.918c-5.042-5.54-10.057-10.924-14.69-16.844zM42.5 22.9c4.622-4.374 11.37-6.6 17.622-6.818 7.78-.27 10.51 4.006 11.114 10.608-3.575.41-7.153.78-10.748.972-1.25-.26-2.148 1.317-1.845 2.453-1.803 1.964-3.19 4.724-3.898 6.438-1.685 4.077-2.848 9.884.472 13.45-6.196 4.496-11.657.92-15.62-5.698-4.48-7.48-3.32-15.513 2.903-21.404zM20.7 34.16c3.433.167 8.744 1.544 12.45.615.15 5.502 2.53 11.075 6.003 15.537 2.134 2.74 5 4.562 7.903 5.275-.012.12.02.25.118.375 2.1 2.608 3.987 5.558 6.074 8.224 1.23 1.57 2.46 3.14 3.728 4.683.312.376.615.77.93 1.15-1.628.02-3.252.042-4.885.06-4.55.043-9.036-.096-13.496-.245.448-.31.662-.943.2-1.472C34.53 62.42 29.566 56.82 25.174 50.18c-3.778-5.71-7.58-11.515-12.564-16.26-.005-.003-.01 0-.014-.004 2.708.016 5.416.113 8.104.244zm-17.88.227c2.953-.35 5.933-.478 8.915-.483-.26.225-.374.625-.076.968 5.35 6.176 9.406 13.13 13.744 20.018 3.325 5.28 7.253 11.868 12.923 14.916-2.92-.096-5.834-.205-8.733-.228.224-.21.426-.487.576-.926.34-1-1.145-1.934-1.832-1.068.534-.672-7.37-10.91-8.663-12.646-4.77-6.406-9.45-13.015-14.308-19.306-.16-.207-.606-.264-.656.085-.525 3.738 3.25 7.76 5.277 10.53 3.19 4.362 6.42 8.66 9.417 13.158.552.83 5.14 8.436 8.254 10.17-2.47.007-4.936.053-7.404.213.01-.19.007-.384-.11-.56-4.853-7.17-10.15-14.76-16.01-21.17a.585.585 0 0 0-.51-.192c-.27-4.495-.54-8.99-.806-13.48zm.935 15.61c2.432 3.93 5.134 7.744 7.722 11.56 1.938 2.858 3.792 6.064 6.377 8.395-1.562.143-3.125.32-4.69.557.01-.194.03-.386-.076-.587-2.443-4.585-5.867-8.5-8.015-13.308-.2-.446-.6-.5-.943-.353l-.375-6.266zm.594 9.942c.87 2.215 2.17 4.334 3.35 6.304.99 1.655 1.994 3.205 3.3 4.592a64.13 64.13 0 0 0-5.57 1.26c-.14.037-.24.105-.344.17-.238-4.114-.492-8.218-.74-12.33zm184.89 120.484c-.08-.01-.137-.045-.218-.046-22.4-.238-44.755-1.963-67.152-2.42-28.724-.588-57.5 3.063-86.204 4.023-13.915.466-30.914 4.98-29.097-14.02 1.52-15.898 1.17-31.98.71-47.917-.434-15.213-1.2-30.442-2.07-45.666.246.138.54.213.89.148 15.73-2.937 31.088-1.258 46.92-.692 18.05.645 36.176-1.1 54.27-.52 15.34.493 30.57.802 45.927.603 8.132-.106 26.505-3.207 34.25.842.57.3 1.187.194 1.68-.105-.312 3.817-.6 6.864-.668 8.5-1.34 32.032 6.432 65.635.756 97.268z"/><path d="M69.55 112.32c7.25-8.334 13.78-17.035 19.205-26.74.675-1.208-.166-2.863-1.62-2.823-11.346.312-22.544 2.193-33.884 2.625-.456.017-.97.243-1.183.68l-.03.06c-.042.088-.016.167-.04.255a1.202 1.202 0 0 0 0 .756c.024.087-.002.167.04.256l.03.056c.213.438.726.663 1.186.68 10.208.39 20.267-.97 30.442-1.448-5.516 9.19-11.936 17.597-19.13 25.617-1.16 1.297-.31 3.093 1.347 3.245 12.406 1.146 26.945 8.488 28.318 22.37 2.095 21.176-33.795 24.355-34.28 1.2-.05-2.35-3.58-2.346-3.643 0-.56 21.086 23.033 25.197 36.007 12.41 17.506-17.245-5.66-35.51-22.76-39.204zm55.02 17.693c.14-14.773 1.54-31.334-1.666-45.877-.39-1.765-2.527-1.61-3.424-.447-5.135 6.653-11.338 12.234-15.854 19.344-.982 1.547 1.353 2.795 2.396 1.4 4.133-5.513 9.085-10.095 13.758-15.11-.41-4.022-.428-4.48-.048-1.378.208 1.82.292 3.66.4 5.487.49 8.136.56 16.305.633 24.453a689.374 689.374 0 0 1-.248 25.844c-.072 2.555.887 11.01-.54 13.124-.763 1.13.695 2.37 1.776 1.776 5.54-3.038 2.772-23.732 2.818-28.617zM49.26 67.32c-8.907-10.596-16.49-22.6-26.602-32.125-.825-.777-1.982.398-1.235 1.235C30.747 46.876 38.07 58.802 47.18 69.4c1.242 1.444 3.287-.642 2.08-2.08zm139.636-1.836c-9.244-12.13-19.7-23.676-29.986-34.935-.36-.397-.89.103-.692.53 2.64 5.747 7.274 10.616 11.294 15.42 5.67 6.776 11.452 13.457 16.808 20.49 1.148 1.51 3.743.024 2.576-1.507zm.972-8.94c-.928-1.843-2.915-3.19-4.32-4.675-2.577-2.72-4.92-5.67-7.287-8.57-3.293-4.035-7.38-11.01-12.426-13.01-.48-.19-.944.46-.666.866 3.563 5.217 8.206 10.004 12.088 15.025 2.602 3.366 7.035 11.39 11.77 11.836.792.074 1.145-.87.844-1.472z"/></g></svg>