<svg xmlns="http://www.w3.org/2000/svg" width="128" height="128" viewBox="0 0 195.815 195.815"><g fill="#37a3b2"><path d="M195.54 60.377c-.007-2.023-.063-4.083-.106-6.134.36-.524.418-1.196-.03-1.827-.278-10.336-1.058-20.89-2.866-30.955a3.463 3.463 0 0 0-.29-1.654c-.012-.057-.02-.116-.03-.173-.118-.607-.577-.985-1.114-1.135a3.138 3.138 0 0 0-1.622-.51c-2.292-.065-4.58-.154-6.87-.23-.07-.1-.134-.204-.202-.303-.455-.65-1.362-.342-1.498.246-17.408-.597-34.796-1.443-52.2-2.19a249.69 249.69 0 0 1-4.567-.25c-.135-.323-.287-.64-.416-.965-.416-1.044-2.094-.635-1.72.474.04.125.1.24.142.365-14.257-.943-31.417-2.53-44.414 2.142-.31-.367-.61-.74-.92-1.106-.6-.71-1.86.256-1.29.997.193.252.38.507.575.76-.6.247-1.21.48-1.79.76-.02.01-.03.025-.047.035-.517-.053-1.046-.01-1.543.26-7.907 4.3-5.495 29.732-5.523 36.907-.024 6.084-1.476 26.666 5.217 32.193-1.006 1.807-.066 4.87 2.71 5.193 9.64 1.115 19.52 1.566 29.242 1.52.424.7 1.145 1.25 2.243 1.347 13.833 1.208 27.902.67 41.787.61 7.624 5.2 12.21 14.214 20.204 18.854 1.362.79 2.58.475 3.366-.32 1.24.513 2.906-.124 3.06-1.942.588-7.03.842-14.122 1.662-21.134 4.287.03 8.264-.975 12.53-2.42 1.452-.493 2.128-1.665 2.202-2.87 5.937-4.95 4.137-20.165 4.113-26.54zm-10.95-35.97c.944 1.617 2.02 3.51 3.512 4.74a129.07 129.07 0 0 0-.032 8.017c-2.11-2.275-4.62-4.363-6.62-6.514-1.81-1.946-4.02-4.08-5.84-6.342 2.993.07 5.986.097 8.98.098zm-11.1-.163c1.276 2.37 3.12 4.48 4.788 6.57 2.863 3.59 6.08 8.495 9.967 11.15.057 1.217.115 2.435.178 3.647-7.467-7.164-14.956-14.306-22.33-21.59 2.465.1 4.93.158 7.396.226zm-10.432-.348c.04.088.072.177.14.26 7.516 9.457 16.28 19.018 25.504 27.136.034.778.07 1.557.096 2.33.046 1.34.054 2.68.08 4.02-3.942-5.6-9.298-10.322-14.184-15.042-3.054-2.95-6.118-5.888-9.145-8.865a613.26 613.26 0 0 1-5.475-5.468c.006.006-1.55-1.473-2.678-2.513.06-.053.1-.137.04-.217-.576-.783-.94-1.44-1.38-1.97 2.332.118 4.665.227 6.998.33zm-87.2 62.94c.084-2.95-.83-5.96-1.17-8.892a134.65 134.65 0 0 1-.454-4.79c2.86 2.228 5.623 4.58 8.357 6.976 2.78 2.438 5.705 5.667 8.998 7.685-5.25-.356-10.527-.54-15.728-.98zm19.212 1.25c.087-.382.023-.804-.254-1.1-3.324-3.554-8.04-6.304-11.855-9.378-2.88-2.322-5.792-4.673-8.883-6.732-.265-4.08-.37-8.17-.417-12.255.494.5 1.24 1.61 1.48 1.878 1.667 1.882 3.267 3.834 4.865 5.776 3.277 3.982 6.46 8.037 9.85 11.927 2.896 3.325 6.684 7.21 10.74 10.5a116.823 116.823 0 0 0-5.524-.614zm15.103 2.246c-3.27-3.605-8.9-6.466-12.274-9.15-4.554-3.62-8.255-8.02-12.07-12.382-3.108-3.556-6.95-9.714-11.535-11.46-.266-.102-.453-.115-.66-.15-.004-.436-.02-.872-.02-1.306-.01-2.384.04-4.77.116-7.152 4.71 5.488 10.884 11.454 12.09 12.797 4.826 5.362 9.603 10.73 14.27 16.234 3.07 3.616 7.006 9.22 11.578 12.5-.5.03-1 .033-1.498.066zm8.226-.36c-.086-.087-.15-.18-.26-.258-10.85-7.884-18.976-18.688-28.27-28.267-5.086-5.243-10.24-12.45-15.936-17.536.195-3.524.47-7.046.828-10.56.086-.85.275-1.772.5-2.74 6.374 10.52 14.603 19.695 22.93 28.73 9.034 9.804 17.48 21.02 26.833 30.52-2.21.02-4.422.05-6.628.114zm11.11-.13c-3.763-9.506-13.88-17.514-20.834-24.532-11.63-11.734-23.774-23.35-32.773-37.3.505-2.057.953-4.16.828-6.018.89.135 1.78.23 2.674.3C88.08 33.714 96.63 45.23 105.444 56.55c8.42 10.813 17.733 24.45 29.004 33.322-1.645-.01-3.29-.03-4.935-.03zm11.21.067c-9.51-11.19-20.617-21.17-30.1-32.51-9.667-11.557-19.015-23.374-28.615-34.985 2.266.05 4.544-.05 6.824-.18 8 14.7 19.045 27.723 30.037 40.226 7.87 8.954 16.243 18.74 25.27 27.47-1.14-.01-2.274-.012-3.414-.022zm22.65 12.96c.217-.634.16-1.38-.33-1.956-11.61-13.67-26.23-25.295-38.632-38.332-12.063-12.678-23.605-25.953-33.387-40.48 1.864-.117 3.727-.237 5.587-.3.45-.014.9-.01 1.35-.023 8.143 14.58 19.366 26.82 30.882 38.843 14.106 14.73 27.113 29.325 39.16 45.813.62.85 1.556.938 2.257.592.04.824.063 1.65.113 2.48-2.5-2.048-4.753-4.34-7-6.64zm6.76.27c-16.626-31.6-49.835-51.875-69.92-81.398 2.54-.048 5.083-.055 7.626-.04 13.288 27.423 40.19 51.407 62.59 70.722l.005.003c-.286 3.577-.36 7.14-.3 10.71zm3.805-17.374c-1.38-.177-2.348.817-2.828 1.965-20.212-22.514-44.11-40.65-61.036-66 5.018.06 10.03.21 15.043.384 5.378 10.888 13.68 20.005 22.1 28.81 6.416 6.71 12.713 13.248 18.535 20.488 3.272 4.07 7.28 11.45 11.497 14.5-1.08.038-2.177 0-3.31-.146zm14.003-7.297c-17.8-16.784-32.526-35.01-47.436-54.528-.87-1.14-2.832-.074-1.973 1.153 7.12 10.167 14.272 20.35 21.9 30.146 7.336 9.42 15.862 21.724 26.877 27.183-.046.43-.122.866-.136 1.295-2.21.75-4.353 1.416-6.54 1.816.095-.21.17-.43.198-.665.062-.503.125-1.006.186-1.51.11-.886-.563-1.38-1.307-1.454-.013-.018-.007-.028-.02-.047-2.338-3.75-1.865-3.03-5.315-6.588-5.714-5.896-10.563-12.512-16.327-18.367-10.683-10.85-22.813-21.385-30.47-34.707.374.01.75.02 1.124.035 6.313.234 12.63.566 18.946.9 4.062 10.007 11.546 18.614 18.462 26.748 6.75 7.938 13.955 17.71 22.59 23.7.004.003.01.003.013.006-.136 1.62-.44 3.25-.775 4.88zm.942-9.603c-12.008-15.83-29.854-27.313-38.85-45.607.95.05 1.902.097 2.853.147a.818.818 0 0 0 .152.537c4.673 6.307 10.064 12.004 15.487 17.665 6.198 6.472 12.016 13.623 18.585 19.7.546.503 1.24.57 1.832.36.007 2.4-.01 4.8-.06 7.2z"/><path d="M132.302 110.497c.03-.303.015-.596.03-.896 2.518-1.46 1.958-6.23-1.694-6.276-20.955-.272-42.863-4.235-63.846-1.58a.294.294 0 0 0-.026-.026c-.416-.396-.914-.202-1.128.17-1.697.234-3.39.5-5.075.83-.013-.08-.012-.158-.03-.242-3.154-13.762 4.536-30.294-2.07-43.378-.114-.226-.303-.432-.517-.622 1.543-1.49.51-4.024-1.695-4.236-6.93-.665-14.455 1.053-21.52 1.05-8.726-.002-17.51-.73-26.22.017-2.54.218-3.05 2.932-1.643 4.29-2.956 3.583-3.24 10.37-3.786 14.56C1.61 85.467.846 96.843.35 108.23c-.467 10.787-.54 21.655.234 32.43.286 3.996.084 10.677 4.405 12.652 1.11.51 2.43.224 3.22-.55.23.197.492.357.834.406 7.225 1.05 14.553 1.115 21.806 2.012-.552 2.648-.48 5.446-.447 8.685.047 4.653-.602 12.845 2.112 16.895 1.136 1.695 3.77 1.86 4.873.23.385.035.777.015 1.153-.15 5.316-2.314 9.08-6.734 12.54-11.23 2.057-2.672 3.945-5.472 5.95-8.18 1.16-1.56 2.484-2.93 3.59-4.45.257.033.506.083.788.045 22.743-3.062 45.34 2.592 68.116 2 1.992-.052 3.38-1.556 3.494-3.495.82-13.596-2.498-28.2 1.68-41.375.66-2.077-.747-3.425-2.398-3.658zm-5.644 5.853c-1.154-1.227-2.43-2.363-3.547-3.452a62.188 62.188 0 0 0-3.493-3.138c2.353.065 4.704.166 7.058.205.08 2.128.248 4.224-.015 6.385zm-11.3-6.714a71.184 71.184 0 0 1 5.677 5.338c1.613 1.7 3.02 3.734 4.672 5.445a42.785 42.785 0 0 0-.66 5.403c-2.09-2.167-4.362-4.205-6.43-6.285-3.355-3.377-6.7-6.77-10.1-10.105 2.28.085 4.56.126 6.84.2zM54.135 60.394c.138 2.27-.03 10.377-.173 19.044-2.807-2.65-5.79-5.145-8.513-7.896-3.22-3.25-6.37-6.552-9.66-9.724 5.673.142 12.74.51 18.343-1.424zM34.6 61.787c-.235.27-.308.68.014 1.022 6.223 6.57 12.06 14.455 19.295 19.976-.03 2.042-.06 4.078-.08 6.04-3.56-3.17-7.81-6.006-10.773-8.55-6.743-5.78-12.442-11.698-17.655-18.795 3.067.13 6.135.247 9.196.305zM9.047 149.005c-.216.03-.396.116-.567.21-1.11-3.96-1.657-8.218-1.924-12.572 1.407 3.716 3.75 6.868 6.497 9.733.537.56 1.206 1.27 1.95 2.005a78.14 78.14 0 0 0-5.957.627zm11.22-.792c-1.585-.94-3.012-2.128-4.394-3.336-3.027-2.646-5.8-5.892-7.303-9.655-.393-.98-1.59-1.004-2.13-.432-.147-3.582-.084-7.21.033-10.813 6.72 9.632 15.65 17.3 24.71 24.827-3.6-.387-7.254-.613-10.918-.59zm17.815 26.96c-.2-3.297-.93-6.794-1.07-9.74-.03-.603-.045-1.208-.068-1.812a49.474 49.474 0 0 0 2.695 3.35c.71.813 1.824 2.253 3.06 3.435-1.44 1.667-2.95 3.27-4.62 4.77zm6.578-7.168c-.935-.74-1.83-1.54-2.69-2.343-1.93-1.807-3.72-3.81-5.175-6.022-.038-1.14-.077-2.277-.127-3.417-.06-1.41-.276-2.405-.585-3.35 4.086 3.406 8.118 6.853 11.908 10.506a78.192 78.192 0 0 1-3.33 4.623zm5.462-8.015c-14.212-13.603-32.29-23.378-43.515-39.872.182-4.098.41-8.116.52-11.888 0-.034.004-.068.005-.104 5.42 7.642 11.817 14.52 18.435 21.22 8.665 8.774 17.5 18.75 27.243 26.292.04.03.086.04.126.066-1.016 1.372-1.938 2.85-2.814 4.286zm11.55-8.472c-.696-.826-1.79-1.318-2.83-.896-1.363.553-2.56 1.43-3.65 2.482-5.78-8.225-14.715-14.747-22.04-21.527-9.186-8.504-18.153-17.31-25.844-27.19.13-3.367.322-6.73.523-10.097 8.196 10.44 17.68 19.73 27.45 28.714C45.31 132.23 55.4 142.6 66.37 150.82a88.214 88.214 0 0 0-4.697.7zm9.44-1.172c-.024-.04-.027-.084-.056-.123-7.898-10.607-20.266-18.557-30.404-26.91-11.697-9.636-23.016-19.648-32.702-31.33.29-4.444.645-8.885 1.094-13.316.038-.372.096-.75.146-1.125 11.552 14.078 25.962 25.85 39.456 37.995 12.07 10.865 22.258 22.672 33.115 34.49-3.55-.02-7.1.043-10.65.32zm15.473-.248c-6.09-13.822-21.24-24.778-32.37-34.353-15.02-12.922-30.197-25.376-43.972-39.664-.26-.27-.55-.31-.808-.23.83-5.03 2.327-10.27 2.36-15.18 0-.01-.005-.02-.005-.03 3.798.335 7.612.586 11.427.773 1.64 7.283 9.373 13.49 14.52 18.33 3.488 3.278 7.095 6.43 10.64 9.643 1.812 1.64 3.55 3.66 5.43 5.43.01 4.642.11 8.22.387 9.41.096.408.252.747.442 1.04-13.623-13.484-26.44-29.51-41.385-41.07-.362-.28-.89.06-.655.507 8.542 16.318 26.237 30.196 39.143 43.06 14.033 13.988 27.855 30.06 43.237 42.746a283.85 283.85 0 0 0-8.387-.41zm13.944.77c-11.65-15.926-28.82-29.248-43.06-42.802-.15-.145-.3-.3-.45-.445.116.02.216.065.34.066 4.307.04 8.607.168 12.908.29 12.697 14.283 26.202 27.01 36.667 43.338-2.137-.145-4.273-.297-6.408-.445zm10.56.704c-7-17.426-23.236-30.805-37.427-43.52 3.58.115 7.156.26 10.734.403 12.71 13.846 25.3 27.48 35.24 43.51-2.852-.09-5.7-.22-8.546-.393zm13.374.48c-9.524-16.587-23.12-30.5-37.075-43.48 2.232.093 4.464.188 6.696.284-.03.277.04.56.286.78 6.428 5.83 12.037 12.264 17.217 19.22 3.753 5.044 6.647 12.522 11.413 16.546 1.095.924 2.535.036 2.306-1.343-1.028-6.168-7.358-12.398-11.137-17.198-5.122-6.51-10.83-12.75-17.352-17.893 2.65.112 5.3.21 7.95.316 3.54 3.846 7.075 7.695 10.553 11.598 3.063 3.44 6.01 7.58 9.64 10.535.145 7.122 1.083 14.522 1.142 20.66-.547 0-1.092-.027-1.64-.03z"/></g></svg>