<svg xmlns="http://www.w3.org/2000/svg" width="128" height="128" viewBox="0 0 184.347 184.347"><g fill="#37a3b2"><path d="M161.884 96.97c-8.263-9.382-18.898-17.122-27.656-26.208-10.81-11.216-20.898-23.14-30.992-34.995-1.715-2.015-4.506-1.387-6.3 0-16.07 12.43-32.123 24.94-47.155 38.623-6.56 5.975-26.1 20.852-23.483 31.465.02.076.07.137.103.206-2.33 8.03 1.59 17.694 3.184 25.654 1.053 5.256 2.12 10.504 3.166 15.755-1.005-.653-2.635.442-1.782 1.56.888 1.16 1.824 2.284 2.763 3.404 1.65 8.482 3.18 16.987 4.324 25.57.314 2.362 1.732 4.3 4.33 4.33 6.232.07 14.606 1.49 22.49 1.653.835.52 1.68.438 2.286.007 5.25-.07 10.16-.824 13.92-3.073 1.61-.965 1.976-2.96 1.26-4.45 3.52-18.554 2.976-37.53 2.806-56.35l18.592.016c2.12 17.23 1.144 34.65 2.417 51.948.123 1.666 1 2.825 2.15 3.483.253 1.396 1.11 2.708 2.587 3.217 11.587 4.002 24.728.79 36.544-.748 1.997-.26 3.753-1.176 4.313-3.284 6.02-22.667 9.44-49.157 10.165-72.633 1.055-1.43 1.23-3.718-.03-5.147zM45 90.885c5.24 6.19 10.724 12.11 16.436 17.87 4.605 4.642 9.5 10.254 15.237 13.673.03 2.317.052 4.64.085 6.956-12.215-10.99-26.492-19.396-37.455-31.746 1.98-2.27 3.88-4.618 5.697-6.753zm1.07 82.755c-.46-3.172-.965-6.337-1.504-9.495.464.472.926.947 1.39 1.42 2.485 2.523 4.968 5.194 7.49 7.833-2.518.098-4.995.196-7.376.242zm13.887-.452c-3.186-2.908-6.516-5.694-9.577-8.547-2.358-2.194-4.65-4.454-6.945-6.712-.987-5.305-2.094-10.586-3.256-15.856a223.154 223.154 0 0 0 8.395 10.15c5.932 6.78 12.276 14.766 19.45 20.98a139.11 139.11 0 0 0-8.07-.01zm16.593.094c-12.105-12.666-25.93-23.896-37.674-37.003-.158-.68-.295-1.36-.456-2.034-1.204-5.064-2.084-11.397-3.78-17.22 5.602 6.672 11.55 13.068 17.386 19.518 6.91 7.637 14.416 18.763 23.318 24.05a1.94 1.94 0 0 0 1.565.195c-.07 4.16-.16 8.32-.36 12.49zm-19.762-37.078c-8.605-8.416-16.753-17.214-24.847-26.104-.725-1.407-1.52-2.75-2.48-3.92 2.645-1.26 5.236-3.553 7.733-6.195 10.465 14.15 26.524 23.13 39.023 35.31.198.193.412.294.624.402.092 6.71.164 13.415.125 20.124-5.14-7.316-13.936-13.512-20.175-19.614zm19.804-20.346c0 .193.006.385.007.578-4.064-3.544-8.656-6.68-12.624-10.225-6.066-5.415-11.652-11.43-17.175-17.4a39.858 39.858 0 0 1 2.177-2.25c.57-.536 1.17-1.046 1.746-1.58 5.668 6.79 12.08 12.927 18.588 18.9 2.687 2.47 5.766 5.805 9.06 8.625-1.05.78-1.79 1.97-1.78 3.355zm7.77-4.26c-.874-.604-1.765-1.186-2.632-1.798-4.076-2.89-7.784-6.44-11.487-9.783-6.01-5.422-11.756-11.15-17.258-17.085 2.17-1.976 4.382-3.905 6.596-5.833 5.538 7.38 11.934 14.192 18.484 20.646 4.02 3.963 9.3 10.008 14.903 13.842l-8.603.006zm17.187-.016c-.027-.027-.036-.06-.06-.088-5.71-6.236-14.358-10.723-20.81-16.367-6.94-6.07-13.404-12.555-19.57-19.385 1.557-1.343 3.163-2.628 4.737-3.953 10.67 14.34 23.604 27.44 37.317 39.79h-1.618zm42.405 57.565c-.472 2.148-6.997 2.827-14.1 2.887-.314-.204-.63-.41-.933-.63-1.944-1.422-3.707-3.137-5.432-4.81-.814-.792-6.763-6.693-6.407-7.405.4-.81-.662-1.774-1.312-1.016-2.04 2.38 2.04 6.783 3.356 8.44 1.515 1.908 3.197 3.672 4.967 5.344-3.62-.11-7.006-.32-9.39-.52-.55-9.845-.63-19.71-.963-29.555 3.176 3.612 6.706 6.93 10.29 10.137 3.28 2.938 6.56 5.864 9.712 8.944 2.83 2.765 4.973 6.11 8.447 8.055.62.35 1.332.2 1.825-.2-.023.11-.037.22-.06.325zm3.008-17.712c-.456-.29-.913-.572-1.338-.86-3.938-2.672-7.886-5.332-11.8-8.04-4.272-2.955-8.54-5.948-12.625-9.16-1.474-1.158-4.587-3.042-5.453-4.704-.52-.992-2.243-.293-1.833.775 2.304 5.993 9.11 10.05 14.05 13.854 4.013 3.09 8.104 6.08 12.19 9.07 1.69 1.234 3.805 3.36 6.017 4.48a228.74 228.74 0 0 1-1.786 10.02c-2.338-6.84-10.455-11.89-15.858-16.26-5.314-4.296-10.353-8.627-14.976-13.53-.26-5.854-.646-11.705-1.33-17.536 11.643 10.043 23.585 19.657 34.96 29.12.056.047.12.058.175.1-.118.89-.265 1.778-.39 2.672zm1.635-12.218l-.453 3.52c-25.45-25.707-55.614-45.866-80.25-72.655 2-1.668 4.057-3.26 6.073-4.91 20.37 26.25 51.32 43.464 75.5 66.022-.285 2.784-.546 5.502-.87 8.023zm1.506-13.732c-9.715-10.894-21.87-19.524-33.565-28.14-7.71-5.68-15.41-11.35-22.828-17.412-3.795-3.102-7.34-6.472-10.86-9.873-1.31-1.265-9.793-6.674-3.576-5.65.45.073.617-.52.188-.68l-2.29-1.152c3.757-3.045 7.48-6.137 11.278-9.116 7.192-5.642 8.674-11.16 14.554-4.206a885.33 885.33 0 0 0 21.03 23.997c9.472 10.416 20.31 23.9 33.57 29.56-1.983 2.58-3.423 5.57-4.525 8.77-9.15-9.27-20.54-17.425-29.832-25.914-7.01-6.406-13.93-12.9-20.905-19.338-3.78-3.492-7.506-8.416-12.496-10.09-.314-.105-.656.234-.55.548 3.717 10.936 19.748 21.77 27.814 29.644 10.4 10.153 21.553 23.873 34.034 32.473a98.3 98.3 0 0 0-1.04 6.577z"/><path d="M164.19 69.187c.397-.594.7-1.277.74-2.158.078-1.85.235-3.745.422-5.656 1.384-.167 2.457-1.795 1.152-3.06-.244-.235-.5-.47-.745-.707 1.996-16.77 6.02-35.126-2.575-50.027-6.903-11.966-25.412-6.555-36.054-5.09-1.683.23-3.02 2.27-2.945 3.87.386 8.555.344 17.08.07 25.62-8.484-8.11-16.95-16.24-25.28-24.51-1.985-1.97-4.635-1.587-6.66 0C58.19 34.222 25.73 65.03 1.008 100.846c-2.17 3.146 2.757 6.914 5.278 4.07 27.827-31.365 56.31-61.59 89.07-87.836 13.664 13.45 27.65 26.58 41.422 39.92 9.103 8.815 18.158 17.68 27.05 26.708 3.308 3.357 11.654 10.647 12.97 13.3 1.558 3.144 5.72 1.828 6.752-.883 2.445-6.418-9.233-18.015-19.36-26.938zm-6.23-52.532c.616 1.852 1.026 3.74 1.353 5.643-1.495-1.086-3.007-2.142-4.37-3.24a251.27 251.27 0 0 1-12.36-10.622c6.755-.366 12.963.987 15.376 8.22zm-1.193 46.15c-2.356-1.995-4.247-3.6-5.288-4.62-7.195-7.04-14.47-14-21.747-20.955.333-1.895.585-3.796.82-5.698 9.528 7.47 17.94 16.062 26.957 24.015-.31 2.44-.58 4.865-.744 7.258zm1.415-12.258c-8.58-7.738-17.85-15.173-27.35-21.354.24-2.28.39-4.567.55-6.854 4.05 5.16 8.895 9.82 13.462 14.353 3.82 3.793 8.395 9.492 13.6 11.97l-.262 1.882zm-25.21-39.428c1.802 5.69 7.612 10.136 11.762 14.116 3.452 3.31 7.003 6.517 10.58 9.69 1.25 1.108 2.718 2.74 4.31 4.012a166.67 166.67 0 0 1-.566 5.127c-9.468-8.208-19.957-16.097-27.37-26.26.143-2.66.27-5.324.38-7.994 2.67-.43 5.528-.927 8.353-1.21-.33.476-.4 1.13.13 1.693 3.74 3.98 7.73 7.716 11.77 11.387 2.368 2.15 4.87 4.86 7.665 6.798.06 1.442.07 2.893.03 4.35-.144-.11-.297-.216-.436-.327a417.54 417.54 0 0 1-9.787-8.184c-4.51-3.88-11.8-8.753-14.646-14.114-.634-1.19-2.58-.37-2.174.917z"/></g></svg>